
        <svg xmlns="http://www.w3.org/2000/svg" xmlns:xlink="http://www.w3.org/1999/xlink" version="1.1" width="3176.470588235294" 
        height="3176.470588235294" viewBox="0 0 3176.470588235294 3176.470588235294">
			<rect fill="#ffffff" width="3176.470588235294" height="3176.470588235294"/>
			<g transform="scale(8.823529411764705) translate(10, 10)">
				<defs id="SvgjsDefs1497"><linearGradient id="SvgjsLinearGradient1508"><stop id="SvgjsStop1509" stop-color="#8f5e25" offset="0"></stop><stop id="SvgjsStop1510" stop-color="#fbf4a1" offset="0.5"></stop><stop id="SvgjsStop1511" stop-color="#8f5e25" offset="1"></stop></linearGradient><linearGradient id="SvgjsLinearGradient1512"><stop id="SvgjsStop1513" stop-color="#8f5e25" offset="0"></stop><stop id="SvgjsStop1514" stop-color="#fbf4a1" offset="0.5"></stop><stop id="SvgjsStop1515" stop-color="#8f5e25" offset="1"></stop></linearGradient><linearGradient id="SvgjsLinearGradient1516"><stop id="SvgjsStop1517" stop-color="#8f5e25" offset="0"></stop><stop id="SvgjsStop1518" stop-color="#fbf4a1" offset="0.5"></stop><stop id="SvgjsStop1519" stop-color="#8f5e25" offset="1"></stop></linearGradient><linearGradient id="SvgjsLinearGradient1520"><stop id="SvgjsStop1521" stop-color="#8f5e25" offset="0"></stop><stop id="SvgjsStop1522" stop-color="#fbf4a1" offset="0.5"></stop><stop id="SvgjsStop1523" stop-color="#8f5e25" offset="1"></stop></linearGradient></defs><g id="SvgjsG1498" featureKey="rootContainer" transform="matrix(3.4000000000000004,0,0,3.4000000000000004,0,0)" fill="#000000"><path xmlns="http://www.w3.org/2000/svg" d="M0 0h100v100H0z"></path></g><g id="SvgjsG1499" featureKey="symbolFeature-0" transform="matrix(2.3305046472828725,0,0,2.3305046472828725,53.974776526026076,16.05120083433887)" fill="url(#SvgjsLinearGradient1508)"><g xmlns="http://www.w3.org/2000/svg" transform="translate(0,-952.36216)"><path d="m 50.196374,970.37485 a 1.5043353,1.4942442 0 0 0 -1.233658,0.6716 c -2.738176,3.9713 -11.417261,7.34737 -21.347025,7.40573 a 1.5043353,1.4942442 0 0 0 -0.0588,0 1.5043353,1.4942442 0 0 0 -0.1952,-0.0204 1.5043353,1.4942442 0 0 0 -1.479617,1.19072 c 0,0 -1.500798,6.74949 -2.252616,14.91315 -0.751859,8.16385 -0.906859,17.72395 2.393136,23.89635 2.472135,4.6239 8.321266,8.3404 13.542957,11.1693 4.829712,2.6165 8.813046,4.2 9.439845,4.4467 a 1.5043353,1.4942442 0 0 0 0.995518,0.3123 1.5043353,1.4942442 0 0 0 1.007238,-0.3201 1.5043353,1.4942442 0 0 0 0.006,0 c 0.652579,-0.2564 4.616113,-1.828 9.428125,-4.4349 5.221671,-2.8289 11.062982,-6.5454 13.535137,-11.1693 3.299995,-6.1724 3.144975,-15.7325 2.393116,-23.89635 -0.751858,-8.16366 -2.252576,-14.91315 -2.252576,-14.91315 a 1.5043353,1.4942442 0 0 0 -1.518677,-1.19072 1.5043353,1.4942442 0 0 0 -0.125,0 c -9.540984,-0.038 -17.922891,-3.23493 -20.847286,-7.09347 a 1.5043353,1.4942442 0 0 0 -1.432777,-0.98004 z m -0.0274,3.89236 c 4.193413,4.42323 12.24024,6.91019 21.225985,7.12867 0.301139,1.42257 1.346777,6.511 1.983236,13.42181 0.732479,7.95281 0.579679,17.28921 -2.057416,22.22151 -1.809177,3.3841 -7.288768,7.2212 -12.32098,9.9474 -4.555432,2.468 -8.257306,3.95 -8.998685,4.2436 -0.741419,-0.2937 -4.443253,-1.7756 -8.998705,-4.2436 -5.032212,-2.7262 -10.511763,-6.5633 -12.32098,-9.9474 -2.637095,-4.9323 -2.789815,-14.2687 -2.057416,-22.22151 0.636159,-6.90741 1.681357,-11.99164 1.983236,-13.41801 9.141745,-0.21772 17.311752,-2.70322 21.561725,-7.13247 z" style="color:;font-style:normal;font-variant:normal;font-weight:normal;font-stretch:normal;font-size:medium;line-height:normal;font-family:sans-serif;text-indent:0;text-align:start;text-decoration:none;text-decoration-line:none;text-decoration-style:solid;text-decoration-color:;letter-spacing:normal;word-spacing:normal;text-transform:none;direction:ltr;block-progression:tb;writing-mode:lr-tb;baseline-shift:baseline;text-anchor:start;white-space:normal;clip-rule:nonzero;display:inline;overflow:visible;visibility:visible;opacity:1;isolation:auto;mix-blend-mode:normal;color-interpolation:sRGB;color-interpolation-filters:linearRGB;solid-color:;solid-opacity:1;fill:url(#SvgjsLinearGradient1508);fill-opacity:1;fill-rule:nonzero;stroke:none;stroke-width:0.88166183;stroke-linecap:round;stroke-linejoin:round;stroke-miterlimit:4;stroke-dasharray:none;stroke-dashoffset:0;stroke-opacity:1;color-rendering:auto;image-rendering:auto;shape-rendering:auto;text-rendering:auto;enable-background:accumulate"></path><path style="color:;font-style:normal;font-variant:normal;font-weight:normal;font-stretch:normal;font-size:medium;line-height:normal;font-family:sans-serif;text-indent:0;text-align:start;text-decoration:none;text-decoration-line:none;text-decoration-style:solid;text-decoration-color:;letter-spacing:normal;word-spacing:normal;text-transform:none;direction:ltr;block-progression:tb;writing-mode:lr-tb;baseline-shift:baseline;text-anchor:start;white-space:normal;clip-rule:nonzero;display:inline;overflow:visible;visibility:visible;opacity:1;isolation:auto;mix-blend-mode:normal;color-interpolation:sRGB;color-interpolation-filters:linearRGB;solid-color:;solid-opacity:1;fill:url(#SvgjsLinearGradient1508);fill-opacity:1;fill-rule:nonzero;stroke:none;stroke-width:3.62480402;stroke-linecap:round;stroke-linejoin:round;stroke-miterlimit:4;stroke-dasharray:none;stroke-dashoffset:0;stroke-opacity:1;color-rendering:auto;image-rendering:auto;shape-rendering:auto;text-rendering:auto;enable-background:accumulate" d="m 43.208647,993.23169 a 1.5040573,1.496248 0 0 1 1.043719,2.57153 l -6.61075,6.55388 6.61075,6.5539 a 1.5040573,1.496248 0 1 1 -2.123097,2.1185 l -7.678767,-7.6131 a 1.5040573,1.496248 0 0 1 0,-2.1185 l 7.678767,-7.61475 a 1.5040573,1.496248 0 0 1 1.079378,-0.45146 z"></path><path d="m 56.812659,993.22983 a 1.5040573,1.496248 0 0 0 -1.043719,2.57153 l 6.61075,6.55384 -6.61075,6.5539 a 1.5040573,1.496248 0 1 0 2.123097,2.1185 l 7.678767,-7.6131 a 1.5040573,1.496248 0 0 0 0,-2.1185 l -7.678767,-7.61471 a 1.5040573,1.496248 0 0 0 -1.079378,-0.45146 z" style="color:;font-style:normal;font-variant:normal;font-weight:normal;font-stretch:normal;font-size:medium;line-height:normal;font-family:sans-serif;text-indent:0;text-align:start;text-decoration:none;text-decoration-line:none;text-decoration-style:solid;text-decoration-color:;letter-spacing:normal;word-spacing:normal;text-transform:none;direction:ltr;block-progression:tb;writing-mode:lr-tb;baseline-shift:baseline;text-anchor:start;white-space:normal;clip-rule:nonzero;display:inline;overflow:visible;visibility:visible;opacity:1;isolation:auto;mix-blend-mode:normal;color-interpolation:sRGB;color-interpolation-filters:linearRGB;solid-color:;solid-opacity:1;fill:url(#SvgjsLinearGradient1508);fill-opacity:1;fill-rule:nonzero;stroke:none;stroke-width:3.62480402;stroke-linecap:round;stroke-linejoin:round;stroke-miterlimit:4;stroke-dasharray:none;stroke-dashoffset:0;stroke-opacity:1;color-rendering:auto;image-rendering:auto;shape-rendering:auto;text-rendering:auto;enable-background:accumulate"></path><path d="m 53.800268,987.52575 a 1.5040573,1.496248 0 0 0 -1.397018,1.10441 l -7.678767,26.64744 a 1.5040573,1.496248 0 1 0 2.891275,0.8255 l 7.678787,-26.64912 a 1.5040573,1.496248 0 0 0 -1.494277,-1.92823 z" style="color:;font-style:normal;font-variant:normal;font-weight:normal;font-stretch:normal;font-size:medium;line-height:normal;font-family:sans-serif;text-indent:0;text-align:start;text-decoration:none;text-decoration-line:none;text-decoration-style:solid;text-decoration-color:;letter-spacing:normal;word-spacing:normal;text-transform:none;direction:ltr;block-progression:tb;writing-mode:lr-tb;baseline-shift:baseline;text-anchor:start;white-space:normal;clip-rule:nonzero;display:inline;overflow:visible;visibility:visible;opacity:1;isolation:auto;mix-blend-mode:normal;color-interpolation:sRGB;color-interpolation-filters:linearRGB;solid-color:;solid-opacity:1;fill:url(#SvgjsLinearGradient1508);fill-opacity:1;fill-rule:nonzero;stroke:none;stroke-width:3.62480402;stroke-linecap:round;stroke-linejoin:round;stroke-miterlimit:4;stroke-dasharray:none;stroke-dashoffset:0;stroke-opacity:1;color-rendering:auto;image-rendering:auto;shape-rendering:auto;text-rendering:auto;enable-background:accumulate"></path></g></g><g id="SvgjsG1500" featureKey="nameFeature-0" transform="matrix(0.6066697196402009,0,0,0.6066697196402009,69.1591553844113,224.09207749202204)" fill="url(#SvgjsLinearGradient1512)"><path d="M13.027 40.39063 c-6.0547 0 -10.781 -2.9102 -11.641 -8.2031 l6.0547 -1.3867 c0.39063 3.1641 2.7148 4.8047 5.8203 4.8047 c2.3828 0 4.2773 -1.0547 4.2578 -3.4375 c-0.019531 -2.6563 -3.1445 -3.4961 -6.582 -4.5508 c-4.1406 -1.2891 -8.5742 -2.8125 -8.5742 -8.0078 c0 -5.2539 4.2969 -8.2227 9.9609 -8.2227 c4.9609 0 9.9609 2.0117 11.094 7.4219 l-5.6641 1.4063 c-0.52734 -2.8125 -2.4219 -4.043 -5.0781 -4.043 c-2.3633 0 -4.375 0.97656 -4.375 3.3008 c0 2.168 2.7734 2.8906 5.9766 3.8477 c4.2578 1.2891 9.2969 2.9297 9.2969 8.5547 c0 5.9961 -5.0195 8.5156 -10.547 8.5156 z M51.7186875 40 l-2.0508 -5.8203 l-11.855 0 l-2.0508 5.8203 l-5.9961 0 l10.391 -28.223 l7.168 0 l10.391 28.223 l-5.9961 0 z M39.531687500000004 29.277 l8.418 0 l-4.1992 -11.973 z M83.7504375 11.777000000000001 l6.2305 0 l-10.43 28.223 l-6.4453 0 l-10.371 -28.223 l6.2109 0 l7.4023 21.387 z M119.2380625 11.777000000000001 l-9.2773 14.707 l0 13.516 l-5.8789 0 l0 -13.379 l-9.3359 -14.844 l6.4844 0 l5.7617 9.6094 l5.7813 -9.6094 l6.4648 0 z M157.65671875 11.777000000000001 l0 5.1563 l-6.6992 0 l0 23.066 l-5.8008 0 l0 -23.066 l-6.7383 0 l0 -5.1563 l19.238 0 z M182.30515625 16.934 l-10.469 0 l0 6.4063 l9.2773 0 l0 5.0977 l-9.2773 0 l0 6.3867 l10.469 0 l0 5.1758 l-16.367 0 l0 -28.223 l16.367 0 l0 5.1563 z M204.68715625 40.39063 c-8.3008 0 -14.434 -5.6445 -14.434 -14.512 s6.1328 -14.492 14.434 -14.492 c6.2891 0 11.328 3.2227 13.34 8.5742 l-5.4688 1.9922 c-1.25 -3.2813 -4.2383 -5.1758 -7.8711 -5.1758 c-4.8633 0 -8.5938 3.3984 -8.5938 9.1016 s3.7305 9.1211 8.5938 9.1211 c3.6328 0 6.6211 -1.9141 7.8711 -5.1953 l5.4688 1.9922 c-2.0117 5.3516 -7.0508 8.5938 -13.34 8.5938 z M244.47234375 11.777000000000001 l5.8594 0 l0 28.223 l-5.8594 0 l0 -11.602 l-11.934 0 l0 11.602 l-5.8594 0 l0 -28.223 l5.8594 0 l0 11.523 l11.934 0 l0 -11.523 z M277.85203125 11.777000000000001 l0 5.1563 l-6.6992 0 l0 23.066 l-5.8008 0 l0 -23.066 l-6.7383 0 l0 -5.1563 l19.238 0 z M286.13276875 40 l0 -28.223 l5.8594 0 l0 28.223 l-5.8594 0 z M331.05465625 41.1719 l-4.8828 1.8555 l-3.6133 -4.0625 c-1.9922 0.91797 -4.2969 1.4258 -6.7969 1.4258 c-8.3984 0 -14.609 -5.6641 -14.609 -14.512 c0 -8.8672 6.2109 -14.492 14.609 -14.492 s14.609 5.625 14.609 14.492 c0 4.1992 -1.3867 7.6758 -3.75 10.176 z M306.99215625 25.878999999999998 c0 6.0156 3.8086 9.4141 8.7695 9.4141 s8.7695 -3.3984 8.7695 -9.4141 c0 -5.7031 -3.8086 -9.1016 -8.7695 -9.1016 s-8.7695 3.3984 -8.7695 9.1016 z"></path></g><g id="SvgjsG1501" featureKey="nameFeature-1" transform="matrix(0.5689191621047196,0,0,0.5689191621047196,69.21147768106063,253.52192905316923)" fill="url(#SvgjsLinearGradient1516)"><path d="M13.027 40.39063 c-6.0547 0 -10.781 -2.9102 -11.641 -8.2031 l6.0547 -1.3867 c0.39063 3.1641 2.7148 4.8047 5.8203 4.8047 c2.3828 0 4.2773 -1.0547 4.2578 -3.4375 c-0.019531 -2.6563 -3.1445 -3.4961 -6.582 -4.5508 c-4.1406 -1.2891 -8.5742 -2.8125 -8.5742 -8.0078 c0 -5.2539 4.2969 -8.2227 9.9609 -8.2227 c4.9609 0 9.9609 2.0117 11.094 7.4219 l-5.6641 1.4063 c-0.52734 -2.8125 -2.4219 -4.043 -5.0781 -4.043 c-2.3633 0 -4.375 0.97656 -4.375 3.3008 c0 2.168 2.7734 2.8906 5.9766 3.8477 c4.2578 1.2891 9.2969 2.9297 9.2969 8.5547 c0 5.9961 -5.0195 8.5156 -10.547 8.5156 z M45.3316875 40.39063 c-8.3008 0 -14.434 -5.6641 -14.434 -14.512 c0 -8.8672 6.1328 -14.492 14.434 -14.492 c8.2813 0 14.414 5.625 14.414 14.492 c0 8.8477 -6.1328 14.512 -14.414 14.512 z M45.3316875 35.0195 c4.8633 0 8.5938 -3.418 8.5938 -9.1406 c0 -5.7031 -3.7305 -9.1016 -8.5938 -9.1016 s-8.5938 3.3984 -8.5938 9.1016 c0 5.7227 3.7305 9.1406 8.5938 9.1406 z M74.84373125 34.8242 l8.8477 0 l0 5.1758 l-14.707 0 l0 -28.223 l5.8594 0 l0 23.047 z M102.461375 40.39063 c-6.1914 0 -11.035 -3.1641 -11.035 -10.273 l0 -18.34 l5.8594 0 l0 17.539 c0 4.2969 2.2852 5.8984 5.1758 5.8984 c2.9102 0 5.2148 -1.6211 5.2148 -5.8984 l0 -17.539 l5.8594 0 l0 18.34 c0 7.1094 -4.8633 10.273 -11.074 10.273 z M140.46921875 11.777000000000001 l0 5.1563 l-6.6992 0 l0 23.066 l-5.8008 0 l0 -23.066 l-6.7383 0 l0 -5.1563 l19.238 0 z M148.74995625 40 l0 -28.223 l5.8594 0 l0 28.223 l-5.8594 0 z M178.24184375 40.39063 c-8.3008 0 -14.434 -5.6641 -14.434 -14.512 c0 -8.8672 6.1328 -14.492 14.434 -14.492 c8.2813 0 14.414 5.625 14.414 14.492 c0 8.8477 -6.1328 14.512 -14.414 14.512 z M178.24184375 35.0195 c4.8633 0 8.5938 -3.418 8.5938 -9.1406 c0 -5.7031 -3.7305 -9.1016 -8.5938 -9.1016 s-8.5938 3.3984 -8.5938 9.1016 c0 5.7227 3.7305 9.1406 8.5938 9.1406 z M221.1721875 11.777000000000001 l5.8398 0 l0 28.223 l-6.7773 0 l-12.5 -20.176 l0 20.176 l-5.8398 0 l0 -28.223 l6.6992 0 l12.578 20.059 l0 -20.059 z M247.53871875 40.39063 c-6.0547 0 -10.781 -2.9102 -11.641 -8.2031 l6.0547 -1.3867 c0.39063 3.1641 2.7148 4.8047 5.8203 4.8047 c2.3828 0 4.2773 -1.0547 4.2578 -3.4375 c-0.019531 -2.6563 -3.1445 -3.4961 -6.582 -4.5508 c-4.1406 -1.2891 -8.5742 -2.8125 -8.5742 -8.0078 c0 -5.2539 4.2969 -8.2227 9.9609 -8.2227 c4.9609 0 9.9609 2.0117 11.094 7.4219 l-5.6641 1.4063 c-0.52734 -2.8125 -2.4219 -4.043 -5.0781 -4.043 c-2.3633 0 -4.375 0.97656 -4.375 3.3008 c0 2.168 2.7734 2.8906 5.9766 3.8477 c4.2578 1.2891 9.2969 2.9297 9.2969 8.5547 c0 5.9961 -5.0195 8.5156 -10.547 8.5156 z M287.4413875 34.8242 l8.8477 0 l0 5.1758 l-14.707 0 l0 -28.223 l5.8594 0 l0 23.047 z M320.97703125 11.777000000000001 l0 5.1563 l-6.6992 0 l0 23.066 l-5.8008 0 l0 -23.066 l-6.7383 0 l0 -5.1563 l19.238 0 z M329.25776875 40 l0 -28.223 l10.215 0 c9.0039 0 13.457 5.6641 13.457 14.102 c0 8.457 -4.4531 14.121 -13.457 14.121 l-10.215 0 z M335.11716875 34.8242 l4.0625 0 c5.1953 0 7.5781 -3.2422 7.5781 -8.9453 s-2.3828 -8.9453 -7.5781 -8.9453 l-4.0625 0 l0 17.891 z"></path></g><g id="SvgjsG1502" featureKey="sloganFeature-0" transform="matrix(1.1534723105307414,0,0,1.1534723105307414,87.64244240536712,283.55658303892676)" fill="url(#SvgjsLinearGradient1520)"><path d="M6.06 16.96 l2.4 -6.36 l-0.6 -2.34 c-0.26 -0.96 1.08 -1.2 1.3 -0.36 l2.36 8.68 l2.54 -8.68 c0.26 -0.9 1.58 -0.52 1.32 0.34 l-3.1 10.54 c-0.12 0.38 -0.46 0.62 -0.78 0.62 c-0.36 0 -0.68 -0.22 -0.8 -0.62 l-1.64 -6.02 c-0.76 2 -1.56 4.04 -2.3 6.04 c-0.14 0.36 -0.46 0.6 -0.76 0.6 s-0.6 -0.2 -0.74 -0.64 l-3.18 -10.52 c-0.26 -0.86 0.96 -1.14 1.22 -0.38 z M24.0995 18.7 l0 -10.64 c0 -0.46 0.36 -0.7 0.7 -0.7 l4.6 0 c0.44 0 0.66 0.32 0.66 0.66 s-0.22 0.68 -0.66 0.68 l-3.96 0 l0 3.88 l3.14 0 c0.46 0 0.68 0.32 0.68 0.66 s-0.24 0.7 -0.68 0.7 l-3.14 0 l0 4.14 l3.96 0 c0.42 0 0.64 0.34 0.64 0.66 c0 0.34 -0.22 0.66 -0.64 0.66 l-4.6 0 c-0.34 0 -0.7 -0.12 -0.7 -0.7 z M50.018499999999996 7.359999999999999 l6.04 0 c0.42 0 0.62 0.34 0.62 0.68 s-0.2 0.66 -0.62 0.66 l-2.28 0 l0 10.06 c0 0.42 -0.34 0.64 -0.68 0.64 s-0.66 -0.22 -0.66 -0.64 l0 -10.06 l-2.42 0 c-0.42 0 -0.62 -0.32 -0.62 -0.66 s0.2 -0.68 0.62 -0.68 z M64.99799999999999 18.7 l0 -10.64 c0 -0.46 0.36 -0.7 0.7 -0.7 l4.6 0 c0.44 0 0.66 0.32 0.66 0.66 s-0.22 0.68 -0.66 0.68 l-3.96 0 l0 3.88 l3.14 0 c0.46 0 0.68 0.32 0.68 0.66 s-0.24 0.7 -0.68 0.7 l-3.14 0 l0 4.14 l3.96 0 c0.42 0 0.64 0.34 0.64 0.66 c0 0.34 -0.22 0.66 -0.64 0.66 l-4.6 0 c-0.34 0 -0.7 -0.12 -0.7 -0.7 z M83.3175 7.32 c1.82 0 3.76 0.7 3.76 2.76 c0 0.48 -0.32 0.7 -0.66 0.7 s-0.7 -0.24 -0.7 -0.7 c0 -0.16 -0.1 -1.46 -2.4 -1.46 c-1.82 0 -2.62 0.72 -2.62 2.44 l0 4.82 c0 1.74 0.98 2.28 2.62 2.28 c1.66 0 2.58 -0.68 2.58 -2.3 c0 -0.46 0.34 -0.68 0.66 -0.68 c0.34 0 0.66 0.22 0.66 0.68 c0 2.7 -1.5 3.6 -3.9 3.6 c-2.6 0 -3.92 -0.96 -3.92 -3.58 l0 -4.82 c0 -2.84 1.42 -3.74 3.92 -3.74 z M96.037 18.76 l0 -10.76 c0 -0.42 0.32 -0.62 0.66 -0.62 s0.68 0.2 0.68 0.62 l0 4.58 l4.54 0 l0 -4.58 c0 -0.42 0.32 -0.64 0.64 -0.64 s0.66 0.22 0.66 0.64 l0 10.76 c0 0.42 -0.34 0.64 -0.66 0.64 s-0.64 -0.22 -0.64 -0.64 l0 -4.82 l-4.54 0 l0 4.82 c0 0.42 -0.34 0.64 -0.68 0.64 s-0.66 -0.22 -0.66 -0.64 z M124.03600000000002 18.78 l0 -10.78 c0 -0.42 0.32 -0.64 0.64 -0.64 s0.66 0.22 0.66 0.64 l0 10.78 c0 0.86 -1.3 0.86 -1.3 0 z M134.09550000000002 7.359999999999999 l6.04 0 c0.42 0 0.62 0.34 0.62 0.68 s-0.2 0.66 -0.62 0.66 l-2.28 0 l0 10.06 c0 0.42 -0.34 0.64 -0.68 0.64 s-0.66 -0.22 -0.66 -0.64 l0 -10.06 l-2.42 0 c-0.42 0 -0.62 -0.32 -0.62 -0.66 s0.2 -0.68 0.62 -0.68 z"></path></g>
			</g>
		</svg>
	